<svg width="72" height="66" viewBox="0 0 72 66" fill="none" xmlns="http://www.w3.org/2000/svg">
<path d="M64.4181 21.639H45.4651C44.6857 21.639 44.0566 21.0054 44.0566 20.2204C44.0566 19.4354 44.6857 18.8018 45.4651 18.8018H64.4228C65.2022 18.8018 65.8313 19.4354 65.8313 20.2204C65.8313 21.0054 65.1975 21.639 64.4181 21.639Z" fill="#5EA045"/>
<path d="M61.8266 21.6392H48.0613L44.0566 17.6055V12.5693H65.8266V17.6008L61.8266 21.6392ZM49.2257 18.8019H60.6529L63.005 16.428V15.4066H46.8735V16.4328L49.2257 18.8019Z" fill="#5EA045"/>
<path d="M45.4643 55.6389C44.685 55.6389 44.0559 55.0053 44.0559 54.2203V53.7001C40.5488 53.0333 37.8869 49.9218 37.8869 46.2002V45.5004H36.6615C35.131 45.5004 33.8869 44.2472 33.8869 42.7056V40.6722H31.4456C30.6662 40.6722 30.0371 40.0386 30.0371 39.2536C30.0371 38.4686 30.6662 37.835 31.4456 37.835H36.7038V42.6631H40.7038V46.2002C40.7038 48.8436 42.8399 50.9952 45.4643 50.9952H46.8728V54.225C46.8728 55.0053 46.239 55.6389 45.4643 55.6389Z" fill="#5EA045"/>
<path d="M64.4174 60.6848C63.6381 60.6848 63.0089 60.0512 63.0089 59.2662V50.9908H64.4174C67.0418 50.9908 69.178 48.8392 69.178 46.1958V26.4341C69.178 23.7907 67.0418 21.639 64.4174 21.639H45.4643C42.8399 21.639 40.7038 23.7907 40.7038 26.4341V29.9712H36.7038V34.7993H31.4456C30.6662 34.7993 30.0371 34.1657 30.0371 33.3807C30.0371 32.5957 30.6662 31.962 31.4456 31.962H33.8869V29.9286C33.8869 28.3871 35.131 27.1339 36.6615 27.1339H37.8869V26.4341C37.8869 22.2254 41.2859 18.8018 45.4643 18.8018H64.4221C68.6005 18.8018 71.9996 22.2254 71.9996 26.4341V46.1958C71.9996 49.9221 69.3376 53.0289 65.8305 53.6956V59.2614C65.8258 60.0512 65.1967 60.6848 64.4174 60.6848Z" fill="#5EA045"/>
<path d="M50.803 60.6853C50.0236 60.6853 49.3945 60.0516 49.3945 59.2666V50.9912H60.4931V54.221C60.4931 55.006 59.864 55.6396 59.0847 55.6396C58.3053 55.6396 57.6762 55.006 57.6762 54.221V53.8285H52.2114V59.2666C52.2114 60.0516 51.5776 60.6853 50.803 60.6853Z" fill="#5EA045"/>
<path d="M27.8405 60.6848H9.57759V55.4973C9.57759 53.4024 11.2677 51.7001 13.3475 51.7001H18.6762V47.4772H14.249L9.41797 42.616V29.6686L13.9015 25.1525H17.3804V22.7645H15.2865C14.2583 22.7645 13.4227 21.9228 13.4227 20.8872V15.2031C13.4227 14.1675 14.2583 13.3258 15.2865 13.3258H17.3804V1.41864C17.3804 0.633661 18.0095 0 18.7889 0C19.5682 0 20.1973 0.633661 20.1973 1.41864V16.1631H16.2396V19.9225H20.1973V27.9851H15.0706L12.2396 30.8366V41.4338L15.418 44.6352H21.4931V54.5326H13.3429C12.817 54.5326 12.3898 54.963 12.3898 55.4926V57.8428H25.0236V19.9225H28.9814V16.1631H25.0236V1.41864C25.0236 0.633661 25.6527 0 26.4321 0C27.2114 0 27.8405 0.633661 27.8405 1.41864V13.3258H29.9344C30.9626 13.3258 31.7983 14.1675 31.7983 15.2031V20.8824C31.7983 21.918 30.9626 22.7598 29.9344 22.7598H27.8405V60.6848Z" fill="#5EA045"/>
<path d="M72.0007 66.0001H9.57812V57.8477H72.0007V66.0001ZM12.395 63.1628H69.1838V60.6849H12.395V63.1628Z" fill="#5EA045"/>
<path d="M62.6478 29.4506H47.2346C46.4553 29.4506 45.8262 28.8169 45.8262 28.0319C45.8262 27.2469 46.4553 26.6133 47.2346 26.6133H62.6478C63.4271 26.6133 64.0562 27.2469 64.0562 28.0319C64.0562 28.8169 63.4271 29.4506 62.6478 29.4506Z" fill="#5EA045"/>
<path d="M62.6478 34.974H47.2346C46.4553 34.974 45.8262 34.3403 45.8262 33.5554C45.8262 32.7704 46.4553 32.1367 47.2346 32.1367H62.6478C63.4271 32.1367 64.0562 32.7704 64.0562 33.5554C64.0562 34.3403 63.4271 34.974 62.6478 34.974Z" fill="#5EA045"/>
<path d="M62.6478 40.4926H47.2346C46.4553 40.4926 45.8262 39.8589 45.8262 39.0739C45.8262 38.2889 46.4553 37.6553 47.2346 37.6553H62.6478C63.4271 37.6553 64.0562 38.2889 64.0562 39.0739C64.0562 39.8589 63.4271 40.4926 62.6478 40.4926Z" fill="#5EA045"/>
<path d="M62.6478 46.016H47.2346C46.4553 46.016 45.8262 45.3823 45.8262 44.5974C45.8262 43.8124 46.4553 43.1787 47.2346 43.1787H62.6478C63.4271 43.1787 64.0562 43.8124 64.0562 44.5974C64.0562 45.3823 63.4271 46.016 62.6478 46.016Z" fill="#5EA045"/>
<path d="M18.7874 32.8603C18.008 32.8603 17.3789 32.2266 17.3789 31.4417V26.571C17.3789 25.786 18.008 25.1523 18.7874 25.1523C19.5667 25.1523 20.1958 25.786 20.1958 26.571V31.4417C20.1958 32.2266 19.5667 32.8603 18.7874 32.8603Z" fill="#5EA045"/>
<path d="M10.8263 33.8822H1.40845C0.629108 33.8822 0 33.2486 0 32.4636C0 31.6786 0.629108 31.0449 1.40845 31.0449H10.8263C11.6056 31.0449 12.2347 31.6786 12.2347 32.4636C12.2347 33.2486 11.6056 33.8822 10.8263 33.8822Z" fill="#5EA045"/>
<path d="M10.8263 41.5853H1.40845C0.629108 41.5853 0 40.9517 0 40.1667C0 39.3817 0.629108 38.748 1.40845 38.748H10.8263C11.6056 38.748 12.2347 39.3817 12.2347 40.1667C12.2347 40.9517 11.6056 41.5853 10.8263 41.5853Z" fill="#5EA045"/>
</svg>
